<svg height="200px" width="200px" version="1.1" id="Layer_1" xmlns="http://www.w3.org/2000/svg"
    xmlns:xlink="http://www.w3.org/1999/xlink" viewBox="0 0 505 505" xml:space="preserve" fill="#000000">
    <g id="SVGRepo_bgCarrier" stroke-width="0"></g>
    <g id="SVGRepo_tracerCarrier" stroke-linecap="round" stroke-linejoin="round"></g>
    <g id="SVGRepo_iconCarrier">
        <circle style="fill:#68fd72;" cx="252.5" cy="252.5" r="252.5"></circle>
        <path style="fill:#e6e6e6;"
            d="M399,127.2H106c-12,0-21.8,9.8-21.8,21.8v27.3h336.7V149C420.8,137,411.1,127.2,399,127.2z"></path>
        <path style="fill:#333333;"
            d="M284.9,172.6L274,156.1h-60.8l-11,16.5h-118V356c0,12,9.8,21.8,21.8,21.8h293.1 c12,0,21.8-9.8,21.8-21.8V172.6H284.9z">
        </path>
        <polygon style="fill:#767d7f;" points="106.6,172.5 189.3,172.5 178.4,156.1 117.6,156.1 "></polygon>
        <circle style="fill:#b8b8b8;" cx="389.7" cy="151.2" r="9.8"></circle>
        <circle style="fill:#333333;" cx="352.2" cy="151.2" r="9.8"></circle>
        <g>
            <path style="fill:#b8b8b8;" d="M143,277.6v-17.3l61.4-28.9V250l-40.5,18.7l40.5,19.2v18.6L143,277.6z"></path>
            <path style="fill:#b8b8b8;" d="M270,217.1h17.9l-53,115.8h-17.8L270,217.1z"></path>
            <path style="fill:#b8b8b8;" d="M362,260.3v17.3l-61.4,28.9v-18.7l40.5-19.2l-40.5-18.7v-18.6L362,260.3z">
            </path>
        </g>
    </g>
</svg>