<svg version="1.1" id="Layer_1" xmlns="http://www.w3.org/2000/svg" xmlns:xlink="http://www.w3.org/1999/xlink"
    viewBox="0 0 496.158 496.158" xml:space="preserve" fill="#000000">
    <g id="SVGRepo_bgCarrier" stroke-width="0"></g>
    <g id="SVGRepo_tracerCarrier" stroke-linecap="round" stroke-linejoin="round"></g>
    <g id="SVGRepo_iconCarrier">
        <path style="fill:#48A1AF;"
            d="M248.082,0.003C111.07,0.003,0,111.063,0,248.085c0,137.001,111.07,248.07,248.082,248.07 c137.006,0,248.076-111.069,248.076-248.07C496.158,111.062,385.088,0.003,248.082,0.003z">
        </path>
        <polygon style="fill:#EDC92F;"
            points="297.927,213.555 197.768,213.555 197.959,272.952 297.926,341.699 297.926,341.76 297.972,341.729 298.016,341.76 298.016,341.699 ">
        </polygon>
        <polygon style="fill:#F95E3A;" points="298.117,144.746 198.059,213.555 298.117,282.364 398.174,213.555 ">
        </polygon>
        <g>
            <ellipse style="fill:#E54615;" cx="298.189" cy="246.989" rx="17.18" ry="13.405"></ellipse>
            <rect x="281.009" y="238.249" style="fill:#E54615;" width="34.21" height="8.747"></rect>
        </g>
        <ellipse style="fill:#F95E3A;" cx="298.189" cy="238.259" rx="17.18" ry="13.404"></ellipse>
        <g>
            <ellipse style="fill:#E54615;" cx="242.509" cy="211.039" rx="17.18" ry="13.405"></ellipse>
            <rect x="225.329" y="202.299" style="fill:#E54615;" width="34.21" height="8.746"></rect>
        </g>
        <ellipse style="fill:#F95E3A;" cx="242.509" cy="202.309" rx="17.18" ry="13.405"></ellipse>
        <g>
            <ellipse style="fill:#E54615;" cx="353.869" cy="211.919" rx="17.18" ry="13.405"></ellipse>
            <rect x="336.699" y="203.169" style="fill:#E54615;" width="34.21" height="8.747"></rect>
        </g>
        <ellipse style="fill:#F95E3A;" cx="353.869" cy="203.179" rx="17.18" ry="13.404"></ellipse>
        <g>
            <ellipse style="fill:#E54615;" cx="297.099" cy="175.229" rx="17.18" ry="13.404"></ellipse>
            <rect x="279.919" y="166.479" style="fill:#E54615;" width="34.21" height="8.746"></rect>
        </g>
        <ellipse style="fill:#F95E3A;" cx="297.099" cy="166.499" rx="17.18" ry="13.405"></ellipse>
        <polygon style="fill:#E54615;"
            points="197.768,213.555 197.959,272.952 211.545,282.294 97.984,282.294 98.174,341.69 198.142,410.437 198.142,410.499 198.186,410.468 198.232,410.499 198.232,410.437 298.199,341.69 298.199,341.573 397.985,272.952 398.174,213.555 ">
        </polygon>
        <polygon style="fill:#EF481B;"
            points="198.142,282.294 97.984,282.294 98.174,341.69 198.142,410.437 198.142,410.499 198.186,410.468 198.232,410.499 198.232,410.437 ">
        </polygon>
        <polygon style="fill:#F95E3A;" points="198.331,213.485 98.275,282.294 198.331,351.102 298.39,282.294 ">
        </polygon>
        <g>
            <ellipse style="fill:#E54615;" cx="198.409" cy="315.729" rx="17.18" ry="13.405"></ellipse>
            <rect x="181.229" y="306.989" style="fill:#E54615;" width="34.21" height="8.747"></rect>
        </g>
        <ellipse style="fill:#F95E3A;" cx="198.409" cy="306.999" rx="17.18" ry="13.405"></ellipse>
        <g>
            <ellipse style="fill:#E54615;" cx="142.719" cy="279.779" rx="17.18" ry="13.405"></ellipse>
            <rect x="125.539" y="271.029" style="fill:#E54615;" width="34.21" height="8.747"></rect>
        </g>
        <ellipse style="fill:#F95E3A;" cx="142.719" cy="271.049" rx="17.18" ry="13.405"></ellipse>
        <g>
            <ellipse style="fill:#E54615;" cx="254.089" cy="280.649" rx="17.18" ry="13.405"></ellipse>
            <rect x="236.909" y="271.909" style="fill:#E54615;" width="34.21" height="8.746"></rect>
        </g>
        <ellipse style="fill:#F95E3A;" cx="254.089" cy="271.919" rx="17.18" ry="13.404"></ellipse>
        <ellipse style="fill:#E54615;" cx="197.319" cy="243.969" rx="17.18" ry="13.404"></ellipse>
        <g>
            <rect x="180.139" y="235.219" style="fill:#F95E3A;" width="34.21" height="8.746"></rect>
            <ellipse style="fill:#F95E3A;" cx="197.319" cy="235.229" rx="17.18" ry="13.405"></ellipse>
        </g>
        <polygon style="fill:#E8BF13;"
            points="197.768,154.468 197.959,213.865 297.926,282.612 297.926,282.673 297.972,282.642 298.016,282.673 298.016,282.612 397.985,213.865 398.174,154.468 ">
        </polygon>
        <polygon style="fill:#EDC92F;"
            points="297.927,154.468 197.768,154.468 197.959,213.865 297.926,282.612 297.926,282.673 297.972,282.642 298.016,282.673 298.016,282.612 ">
        </polygon>
        <polygon style="fill:#F7D64D;" points="298.117,85.659 198.059,154.468 298.117,223.277 398.174,154.468 ">
        </polygon>
        <g>
            <ellipse style="fill:#E8BF13;" cx="298.189" cy="187.909" rx="17.18" ry="13.405"></ellipse>
            <rect x="281.009" y="179.159" style="fill:#E8BF13;" width="34.21" height="8.747"></rect>
        </g>
        <ellipse style="fill:#F7D64D;" cx="298.189" cy="179.169" rx="17.18" ry="13.405"></ellipse>
        <g>
            <ellipse style="fill:#E8BF13;" cx="242.509" cy="151.959" rx="17.18" ry="13.405"></ellipse>
            <rect x="225.329" y="143.209" style="fill:#E8BF13;" width="34.21" height="8.747"></rect>
        </g>
        <ellipse style="fill:#F7D64D;" cx="242.509" cy="143.219" rx="17.18" ry="13.404"></ellipse>
        <g>
            <ellipse style="fill:#E8BF13;" cx="353.869" cy="152.829" rx="17.18" ry="13.404"></ellipse>
            <rect x="336.699" y="144.079" style="fill:#E8BF13;" width="34.21" height="8.746"></rect>
        </g>
        <ellipse style="fill:#F7D64D;" cx="353.869" cy="144.089" rx="17.18" ry="13.404"></ellipse>
        <g>
            <ellipse style="fill:#E8BF13;" cx="297.099" cy="116.139" rx="17.18" ry="13.405"></ellipse>
            <rect x="279.919" y="107.399" style="fill:#E8BF13;" width="34.21" height="8.746"></rect>
        </g>
        <ellipse style="fill:#F7D64D;" cx="297.099" cy="107.409" rx="17.18" ry="13.405"></ellipse>
    </g>
</svg>