<svg height="200px" width="200px" version="1.1" id="Layer_1" xmlns="http://www.w3.org/2000/svg"
    xmlns:xlink="http://www.w3.org/1999/xlink" viewBox="0 0 512 512" xml:space="preserve" fill="#000000">
    <g id="SVGRepo_bgCarrier" stroke-width="0"></g>
    <g id="SVGRepo_tracerCarrier" stroke-linecap="round" stroke-linejoin="round"></g>
    <g id="SVGRepo_iconCarrier">
        <path style="fill:#97C3A9;"
            d="M281.04,129.588V114.62c24.424-13.832,33.008-44.84,19.176-69.256 c-13.832-24.424-44.84-33.008-69.256-19.176s-33.008,44.84-19.176,69.256c4.536,8.016,11.168,14.64,19.176,19.176v14.968 c-47.352,2.216-71.432,34.232-71.432,55.752v17.672h192.944v-17.64C352.472,163.852,328.392,131.836,281.04,129.588z">
        </path>
        <path style="fill:#d6d6d6;"
            d="M121.512,418.996v-15.008c24.424-13.832,33.008-44.84,19.176-69.256 c-13.832-24.424-44.84-33.008-69.256-19.176c-24.424,13.832-33.008,44.84-19.176,69.256c4.536,8.016,11.168,14.64,19.176,19.176v15 C24.08,421.212,0,453.228,0,474.748v17.672h192.944v-17.672C192.944,453.228,168.864,421.212,121.512,418.996z">
        </path>
        <path style="fill:#B6DFF6;"
            d="M440.568,418.996v-15.008c24.424-13.832,33.008-44.84,19.176-69.256 c-13.832-24.424-44.84-33.008-69.256-19.176s-33.008,44.84-19.176,69.256c4.536,8.016,11.168,14.64,19.176,19.176v15 c-47.352,2.216-71.432,34.232-71.432,55.752v17.672H512v-17.664C512,453.228,487.92,421.212,440.568,418.996z">
        </path>
        <path style="fill:#97C3A9;"
            d="M256,275.276c-23.176,0-41.968,18.792-41.968,41.968s18.792,41.968,41.968,41.968 s41.968-18.792,41.968-41.968l0,0C297.96,294.068,279.176,275.276,256,275.276z M256,342.58c-13.992,0-25.336-11.344-25.336-25.336 s11.344-25.336,25.336-25.336s25.336,11.344,25.336,25.336l0,0C281.336,331.236,269.992,342.58,256,342.58L256,342.58z">
        </path>
        <path style="fill:#d6d6d6;"
            d="M342.472,330.204v-25.928l-19.2-1.92c-1.736-7.856-4.84-15.336-9.176-22.112l12.232-14.944 L308,246.964l-14.928,12.224c-6.776-4.344-14.272-7.464-22.128-9.208l-1.92-19.152h-26.04l-1.92,19.152 c-7.864,1.744-15.36,4.864-22.136,9.208L204,246.972l-18.336,18.336l12.224,14.944c-4.336,6.784-7.44,14.272-9.176,22.136 l-19.2,1.92v25.928l19.2,1.92c1.736,7.856,4.848,15.352,9.184,22.128l-12.224,14.944L204,387.524l14.928-12.216 c6.784,4.352,14.28,7.472,22.144,9.208l1.92,19.152h26.032l1.92-19.152c7.864-1.744,15.36-4.864,22.136-9.216L308,387.524 l18.336-18.336l-12.232-14.952c4.336-6.768,7.44-14.256,9.168-22.104L342.472,330.204z M256,359.188 c-23.176,0-41.968-18.792-41.968-41.968s18.792-41.968,41.968-41.968s41.968,18.792,41.968,41.968l0,0 C297.96,340.396,279.176,359.18,256,359.188z">
        </path>
    </g>
</svg>